:FULLY-SPECIFIED
:FORCE-ALL-JOINTS-BE-3DOF
:DEGREES
2650
root -1.48519 15.3667 -28.6352 1248.12 -70.7748 -172.413
lfemur -50.3451 23.936 -8.698
ltibia 52.4954 -0 0
lfoot 20.8836 15.2929 0.0290997
ltoes -18.7561 0 0
rfemur -35.8208 -17.0366 24.3967
rtibia 67.0807 -0 0
rfoot -23.4625 -4.62634 0.0464216
rtoes -6.00828 0 0
lowerback 18.8992 4.86879 -0.35836
upperback -0.195566 6.34078 0.321276
thorax -10.8877 2.98648 -1.20711
lowerneck -2.12079 9.54954 0.116482
upperneck 5.16575 12.6806 1.01116
head 1.90838 6.33788 0.579218
lclavicle 2.9156e-14 1.0729e-14 -3.33993e-30
lhumerus 34.2717 -32.8441 58.0413
lradius 115.868 -0 0
lwrist -26.2146 0 0
lhand -38.1044 31.9405 0.0269748
lfingers 7.12502 -0 0
lthumb -2.60239 47.3039 -1.07684
rclavicle -9.58679e-15 2.99886e-15 3.70141e-30
rhumerus 1.23023 74.627 -74.0925
rradius 104.946 -0 0
rwrist -51.342 0 0
rhand -0.400417 -27.286 0.146693
rfingers 7.12502 -0 0
rthumb 21.7397 -54.5406 0.221227
2651
root -1.61232 15.3906 -28.607 1249.02 -69.6122 -173.636
lfemur -50.332 23.9854 -8.6819
ltibia 52.3368 0 0
lfoot 21.3397 15.3542 0.0134434
ltoes -18.7364 0 0
rfemur -35.5363 -17.0834 24.119
rtibia 67.064 -0 0
rfoot -23.676 -5.07819 0.0618217
rtoes -6.1086 0 0
lowerback 18.8266 5.12403 -0.153294
upperback -0.251411 6.70753 0.145999
thorax -10.8608 3.14407 -1.60937
lowerneck -2.0623 9.54913 0.433048
upperneck 5.42582 12.6648 1.00295
head 2.00497 6.334 0.535951
lclavicle 2.22791e-14 9.34693e-15 -4.33001e-30
lhumerus 31.9824 -31.5403 58.8719
lradius 116.14 -0 0
lwrist -25.7248 0 0
lhand -38.2649 31.7212 0.0315833
lfingers 7.12502 -0 0
lthumb -3.96786 48.6171 -1.07684
rclavicle -1.30397e-14 5.36818e-15 3.918e-30
rhumerus -3.22017 74.0045 -77.371
rradius 106.578 -0 0
rwrist -54.9836 0 0
rhand 0.596808 -27.1134 0.115331
rfingers 7.12502 -0 0
rthumb 22.5376 -54.2304 0.200486
2652
root -1.74699 15.4007 -28.5767 1249.82 -68.4407 -174.71
lfemur -50.294 24.1285 -8.63513
ltibia 52.3153 -0 0
lfoot 21.6231 15.3922 0.00347154
ltoes -18.6793 0 0
rfemur -35.207 -17.1359 23.7976
rtibia 67.0503 -0 0
rfoot -23.9157 -5.58493 0.0770863
rtoes -6.24224 0 0
lowerback 18.6485 5.27942 -0.109976
upperback -0.296713 6.92052 0.086902
thorax -10.7953 3.24382 -1.74166
lowerneck -1.9493 9.66813 0.769626
upperneck 5.77136 12.8108 0.922342
head 2.12694 6.40913 0.47193
lclavicle 1.46754e-14 7.81886e-15 -5.23162e-30
lhumerus 29.9481 -30.332 59.5641
lradius 116.396 -0 0
lwrist -25.2268 0 0
lhand -38.436 31.4875 0.0358182
lfingers 7.12502 -0 0
lthumb -5.32422 49.9214 -1.04586
rclavicle -1.65508e-14 7.77744e-15 3.99182e-30
rhumerus -7.82549 73.2349 -80.6681
rradius 108.116 -0 0
rwrist -58.3913 0 0
rhand 1.47808 -26.9614 0.0851167
rfingers 7.12502 -0 0
rthumb 23.2964 -53.9356 0.176752
2653
root -1.88081 15.4123 -28.5458 1250.22 -67.3189 -175.363
lfemur -50.2326 24.3577 -8.55986
ltibia 52.2538 -0 0
lfoot 21.7205 15.4052 0
ltoes -18.5882 0 0
rfemur -34.8395 -17.1923 23.4389
rtibia 67.0401 -0 0
rfoot -24.1774 -6.13827 0.0913317
rtoes -6.4053 0 0
lowerback 18.4973 5.38331 0.153723
upperback -0.350577 7.11216 0.017496
thorax -10.7251 3.32156 -2.00236
lowerneck -2.08064 9.75007 1.1103
upperneck 6.21737 12.8958 0.995905
head 2.31642 6.45849 0.470434
lclavicle 6.50644e-15 6.17719e-15 -5.97429e-30
lhumerus 28.1815 -29.2453 60.1286
lradius 116.634 -0 0
lwrist -24.7289 0 0
lhand -38.6159 31.2417 0.0395179
lfingers 7.12502 -0 0
lthumb -6.65332 51.1994 -0.985512
rclavicle -2.00619e-14 1.01867e-14 3.918e-30
rhumerus -12.4143 72.3225 -83.8356
rradius 109.536 -0 0
rwrist -61.5132 0 0
rhand 2.2295 -26.8321 0.0575074
rfingers 7.12502 -0 0
rthumb 24.0084 -53.6593 0.15093
2654
root -2.01745 15.4186 -28.5148 1250.53 -66.2216 -175.877
lfemur -50.1496 24.6656 -8.4581
ltibia 52.1563 -0 0
lfoot 21.6578 15.3282 0.0070152
ltoes -18.4662 0 0
rfemur -34.4407 -17.2509 23.0496
rtibia 67.0336 -0 0
rfoot -24.4572 -6.72952 0.103757
rtoes -6.59386 0 0
lowerback 18.2912 5.51299 0.443185
upperback -0.402093 7.35231 0.026626
thorax -10.6253 3.42507 -2.19786
lowerneck -1.96216 9.82146 1.05478
upperneck 6.48132 12.9939 0.9561
head 2.38215 6.50323 0.472659
lclavicle -2.06622e-15 4.45439e-15 -6.50196e-30
lhumerus 26.6963 -28.3052 60.5759
lradius 116.85 -0 0
lwrist -24.2391 0 0
lhand -38.8029 30.9863 0.0425446
lfingers 7.12502 -0 0
lthumb -7.93714 52.4338 -0.898986
rclavicle -2.35148e-14 1.2556e-14 3.70141e-30
rhumerus -16.8551 71.28 -86.7656
rradius 110.81 -0 0
rwrist -64.2974 0 0
rhand 2.83765 -26.7278 0.0339208
rfingers 7.12502 -0 0
rthumb 24.6656 -53.4045 0.124044
